<?xml version="1.0" encoding="utf-8"?>
<!-- Generator: Adobe Illustrator 19.0.0, SVG Export Plug-In . SVG Version: 6.00 Build 0)  -->
<svg version="1.1" id="Layer_1" xmlns="http://www.w3.org/2000/svg" xmlns:xlink="http://www.w3.org/1999/xlink" x="0px" y="0px"
	 viewBox="-680 527.9 366.3 243.1" style="enable-background:new -680 527.9 366.3 243.1;" xml:space="preserve">
<style type="text/css">
	.st0{fill:url(#SVGID_1_);}
	.st1{fill:url(#SVGID_2_);}
	.st2{fill:url(#SVGID_3_);}
	.st3{fill:url(#SVGID_4_);}
	.st4{fill:url(#SVGID_5_);}
	.st5{fill:url(#SVGID_6_);}
	.st6{fill:#0082FB;}
	.st7{fill:url(#SVGID_7_);}
	.st8{fill:url(#SVGID_8_);}
	.st9{fill:url(#SVGID_9_);}
	.st10{fill:url(#SVGID_10_);}
	.st11{fill:url(#SVGID_11_);}
	.st12{fill:url(#SVGID_12_);}
	.st13{fill:url(#SVGID_13_);}
</style>
<title>Meta logo</title>
<g>
	
		<linearGradient id="SVGID_1_" gradientUnits="userSpaceOnUse" x1="4031.0022" y1="693.2512" x2="3697.5674" y2="255.6533" gradientTransform="matrix(0.2456 0 0 0.2456 -1463.528 482.099)">
		<stop  offset="6.000000e-004" style="stop-color:#0867DF"/>
		<stop  offset="0.4539" style="stop-color:#0668E1"/>
		<stop  offset="0.8591" style="stop-color:#0064E0"/>
	</linearGradient>
	<path class="st0" d="M-574.7,527.9c-0.1,0-0.2,0-0.4,0l-0.5,39.7c0.1,0,0.2,0,0.3,0c26.2,0,46.5,20.6,90.7,94.9l2.7,4.5l0.2,0.3
		l24.7-37l-0.2-0.3c-5.8-9.4-11.4-18.1-16.8-26.1c-6.2-9.2-12.2-17.4-17.9-24.7C-521,542.1-545.5,527.9-574.7,527.9z"/>
	
		<linearGradient id="SVGID_2_" gradientUnits="userSpaceOnUse" x1="3381.1841" y1="409.7792" x2="3609.9644" y2="235.8208" gradientTransform="matrix(0.2456 0 0 0.2456 -1463.528 482.099)">
		<stop  offset="0.1323" style="stop-color:#0064DF"/>
		<stop  offset="0.9988" style="stop-color:#0064E0"/>
	</linearGradient>
	<path class="st1" d="M-575,527.9c-29.4,0.2-55.3,19.1-74.1,48.1c-0.1,0.1-0.1,0.2-0.2,0.3l34.4,18.7c0.1-0.1,0.1-0.2,0.2-0.3
		c10.9-16.5,24.6-27,39.2-27.1c0.1,0,0.2,0,0.3,0l0.5-39.7C-574.9,527.9-575,527.9-575,527.9z"/>
	
		<linearGradient id="SVGID_3_" gradientUnits="userSpaceOnUse" x1="3283.8459" y1="664.3946" x2="3375.4761" y2="433.3741" gradientTransform="matrix(0.2456 0 0 0.2456 -1463.528 482.099)">
		<stop  offset="1.470000e-002" style="stop-color:#0072EC"/>
		<stop  offset="0.6881" style="stop-color:#0064DF"/>
	</linearGradient>
	<path class="st2" d="M-649.2,576c-0.1,0.1-0.1,0.2-0.2,0.3c-12.3,19.2-21.5,42.7-26.5,68c0,0.1,0,0.2-0.1,0.3l38.7,9.1
		c0-0.1,0-0.2,0.1-0.3c4.1-22.3,12-42.9,22.2-58.4c0.1-0.1,0.1-0.2,0.2-0.3L-649.2,576z"/>
	
		<linearGradient id="SVGID_4_" gradientUnits="userSpaceOnUse" x1="3271.2595" y1="831.2708" x2="3281.8572" y2="690.2378" gradientTransform="matrix(0.2456 0 0 0.2456 -1463.528 482.099)">
		<stop  offset="7.310000e-002" style="stop-color:#007CF6"/>
		<stop  offset="0.9943" style="stop-color:#0072EC"/>
	</linearGradient>
	<path class="st3" d="M-637.2,653.4l-38.7-9.1c0,0.1,0,0.2-0.1,0.3c-2.7,13.9-4.1,28.1-4.1,42.3c0,0.1,0,0.2,0,0.3l39.7,3.5
		c0-0.1,0-0.2,0-0.3c0-0.8,0-1.7,0-2.5c0-11.5,1.1-22.9,3.2-34.2C-637.2,653.6-637.2,653.5-637.2,653.4z"/>
	
		<linearGradient id="SVGID_5_" gradientUnits="userSpaceOnUse" x1="3277.7256" y1="907.8582" x2="3270.1445" y2="851.3511" gradientTransform="matrix(0.2456 0 0 0.2456 -1463.528 482.099)">
		<stop  offset="7.310000e-002" style="stop-color:#007FF9"/>
		<stop  offset="1" style="stop-color:#007CF6"/>
	</linearGradient>
	<path class="st4" d="M-639,703.2c-0.7-4.1-1.1-8.2-1.2-12.4c0-0.1,0-0.2,0-0.3l-39.6-3.5c0,0.1,0,0.2,0,0.3l0,0
		c0,8.3,0.7,16.6,2.2,24.8c0,0.1,0,0.2,0.1,0.3l38.7-8.9C-639,703.4-639,703.3-639,703.2z"/>
	
		<linearGradient id="SVGID_6_" gradientUnits="userSpaceOnUse" x1="3272.8511" y1="922.7843" x2="3320.1206" y2="1023.1999" gradientTransform="matrix(0.2456 0 0 0.2456 -1463.528 482.099)">
		<stop  offset="7.310000e-002" style="stop-color:#007FF9"/>
		<stop  offset="1" style="stop-color:#0082FB"/>
	</linearGradient>
	<path class="st5" d="M-630,723.7c-4.3-4.7-7.4-11.5-9-20.2c0-0.1,0-0.2-0.1-0.3l-38.7,8.9c0,0.1,0,0.2,0.1,0.3
		c2.9,15.3,8.7,28.1,16.9,37.8c0.1,0.1,0.1,0.2,0.2,0.3l30.8-26.5C-630,723.8-630,723.8-630,723.7z"/>
	<path class="st6" d="M-515.5,613.8c-23.3,35.7-37.4,58.1-37.4,58.1c-31.1,48.6-41.8,59.5-59.1,59.5c-7.2,0-13.2-2.6-17.9-7.5
		c-0.1-0.1-0.2-0.2-0.2-0.2l-30.8,26.5c0.1,0.1,0.1,0.2,0.2,0.3c11.3,13.2,27.3,20.5,47.2,20.5c30,0,51.5-14.1,89.8-81
		c0,0,16-28.2,27-47.5C-503.5,631.5-509.8,622-515.5,613.8z"/>
	
		<linearGradient id="SVGID_7_" gradientUnits="userSpaceOnUse" x1="4001.6785" y1="437.3968" x2="4064.2019" y2="350.7882" gradientTransform="matrix(0.2456 0 0 0.2456 -1463.528 482.099)">
		<stop  offset="0.2799" style="stop-color:#007FF8"/>
		<stop  offset="0.9141" style="stop-color:#0082FB"/>
	</linearGradient>
	<path class="st7" d="M-473.9,557.4c-0.1,0.1-0.2,0.2-0.2,0.3c-6.3,6.8-12.2,14-17.7,21.5c5.8,7.3,11.7,15.6,17.9,24.8
		c7.3-11.3,14.2-20.4,20.9-27.4c0.1-0.1,0.2-0.2,0.2-0.2L-473.9,557.4z"/>
	<path class="st6" d="M-360.7,553.9c-16.3-16.4-35.6-26-56.4-26c-21.9,0-40.2,12-56.8,29.5c-0.1,0.1-0.2,0.2-0.2,0.3l21.1,18.8
		c0.1-0.1,0.2-0.2,0.2-0.2c10.9-11.3,21.5-17,33.2-17l0,0c12.6,0,24.4,5.9,34.6,16.3c0.1,0.1,0.2,0.2,0.2,0.2l24.2-21.6
		C-360.6,554.1-360.7,554-360.7,553.9z"/>
	
		<linearGradient id="SVGID_8_" gradientUnits="userSpaceOnUse" x1="4478.0029" y1="324.9345" x2="4608.686" y2="806.4301" gradientTransform="matrix(0.2456 0 0 0.2456 -1463.528 482.099)">
		<stop  offset="0" style="stop-color:#0082FB"/>
		<stop  offset="0.9995" style="stop-color:#0081FA"/>
	</linearGradient>
	<path class="st8" d="M-313.7,681.7c-0.9-52.7-19.4-99.7-46.8-127.5c-0.1-0.1-0.2-0.2-0.2-0.2l-24.2,21.6c0.1,0.1,0.2,0.2,0.2,0.2
		c20.6,21.1,34.7,60.5,36,105.9c0,0.1,0,0.2,0,0.3h35C-313.7,681.9-313.7,681.8-313.7,681.7z"/>
	
		<linearGradient id="SVGID_9_" gradientUnits="userSpaceOnUse" x1="4640.3994" y1="824.8357" x2="4557.6655" y2="992.2996" gradientTransform="matrix(0.2456 0 0 0.2456 -1463.528 482.099)">
		<stop  offset="6.190000e-002" style="stop-color:#0081FA"/>
		<stop  offset="1" style="stop-color:#0080F9"/>
	</linearGradient>
	<path class="st9" d="M-313.7,682.1c0-0.1,0-0.2,0-0.3h-35c0,0.1,0,0.2,0,0.3c0.1,2.1,0.1,4.3,0.1,6.4c0,12.4-1.9,22.4-5.6,29.6
		c-0.1,0.1-0.1,0.2-0.2,0.3l26.1,27.1c0.1-0.1,0.1-0.2,0.2-0.3c9.5-14.6,14.4-34.8,14.4-59.4C-313.7,684.5-313.7,683.3-313.7,682.1z
		"/>
	
		<linearGradient id="SVGID_10_" gradientUnits="userSpaceOnUse" x1="4491.4756" y1="1080.8536" x2="4568.936" y2="1028.0123" gradientTransform="matrix(0.2456 0 0 0.2456 -1463.528 482.099)">
		<stop  offset="0" style="stop-color:#027AF3"/>
		<stop  offset="1" style="stop-color:#0080F9"/>
	</linearGradient>
	<path class="st10" d="M-354.2,718.1c-0.1,0.1-0.1,0.2-0.2,0.3c-3.3,6.1-7.9,10.2-14,11.9l11.9,37.4c1.6-0.5,3.1-1.1,4.6-1.8
		c0.4-0.2,0.9-0.4,1.3-0.6c0.3-0.1,0.5-0.2,0.8-0.4c7.9-4,14.8-9.9,19.9-17.1c0.3-0.5,0.7-0.9,1-1.4c0.2-0.3,0.4-0.7,0.7-1
		c0.1-0.1,0.1-0.2,0.2-0.3L-354.2,718.1z"/>
	
		<linearGradient id="SVGID_11_" gradientUnits="userSpaceOnUse" x1="4369.9097" y1="1091.4131" x2="4477.6592" y2="1091.4131" gradientTransform="matrix(0.2456 0 0 0.2456 -1463.528 482.099)">
		<stop  offset="0" style="stop-color:#0377EF"/>
		<stop  offset="0.9994" style="stop-color:#0279F1"/>
	</linearGradient>
	<path class="st11" d="M-376,731.4c-3.8,0.1-7.5-0.6-10.9-2.1l-12.2,38.3c6.8,2.3,14.1,3.4,22.3,3.4c7,0.1,14-1,20.6-3.3l-11.9-37.4
		C-370.6,731-373.3,731.4-376,731.4z"/>
	
		<linearGradient id="SVGID_12_" gradientUnits="userSpaceOnUse" x1="4276.2881" y1="1031.8865" x2="4353.6875" y2="1077.4933" gradientTransform="matrix(0.2456 0 0 0.2456 -1463.528 482.099)">
		<stop  offset="1.900000e-003" style="stop-color:#0471E9"/>
		<stop  offset="1" style="stop-color:#0377EF"/>
	</linearGradient>
	<path class="st12" d="M-400.3,718.3c-0.1-0.1-0.1-0.2-0.2-0.3l-28,29.1c0.1,0.1,0.2,0.2,0.2,0.3c9.7,10.4,19,16.8,29.6,20.3
		l12.2-38.3C-391,727.5-395.3,724-400.3,718.3z"/>
	
		<linearGradient id="SVGID_13_" gradientUnits="userSpaceOnUse" x1="4040.4014" y1="696.0941" x2="4288.0684" y2="1007.9722" gradientTransform="matrix(0.2456 0 0 0.2456 -1463.528 482.099)">
		<stop  offset="0.2765" style="stop-color:#0867DF"/>
		<stop  offset="1" style="stop-color:#0471E9"/>
	</linearGradient>
	<path class="st13" d="M-400.6,718c-8.4-9.8-18.8-26-35.1-52.3l-21.3-35.5l-0.2-0.3l-24.7,37l0.2,0.3l15.1,25.4
		C-452,717-440,734.7-428.5,747c0.1,0.1,0.2,0.2,0.2,0.3l28-29.1C-400.4,718.2-400.5,718.1-400.6,718z"/>
</g>
</svg>
